<?xml version="1.0" standalone="no"?>
<!DOCTYPE svg PUBLIC "-//W3C//DTD SVG 20010904//EN"
 "http://www.w3.org/TR/2001/REC-SVG-20010904/DTD/svg10.dtd">
<svg version="1.0" xmlns="http://www.w3.org/2000/svg"
 width="1052.000000pt" height="1052.000000pt" viewBox="0 0 1052.000000 1052.000000"
 preserveAspectRatio="xMidYMid meet">
<metadata>
Created by potrace 1.14, written by Peter Selinger 2001-2017
</metadata>
<g transform="translate(0.000000,1052.000000) scale(0.100000,-0.100000)"
fill="#000000" stroke="none">
<path d="M4380 9720 c0 -3 -28 -6 -63 -6 -66 -1 -214 -13 -246 -19 -11 -2 -51
-7 -88 -10 -37 -4 -70 -9 -73 -10 -3 -2 -26 -6 -50 -10 -25 -3 -53 -8 -63 -11
-10 -3 -36 -7 -57 -9 -21 -2 -43 -6 -48 -9 -5 -3 -27 -8 -48 -12 -22 -3 -82
-17 -134 -31 -52 -13 -104 -26 -115 -27 -11 -2 -27 -6 -35 -9 -30 -11 -295
-98 -311 -101 -9 -3 -36 -13 -60 -24 -24 -10 -68 -27 -96 -38 -29 -10 -53 -22
-53 -27 0 -4 -4 -6 -8 -3 -10 6 -428 -199 -485 -238 -21 -14 -40 -26 -42 -26
-8 0 -199 -123 -221 -142 -11 -10 -23 -18 -27 -18 -13 0 -310 -226 -367 -280
-9 -8 -52 -46 -95 -85 -107 -96 -245 -234 -335 -335 -41 -47 -77 -87 -80 -90
-7 -6 -94 -113 -135 -165 -16 -21 -34 -45 -39 -54 -5 -9 -18 -25 -28 -35 -10
-11 -18 -23 -18 -27 0 -5 -11 -19 -25 -33 -14 -14 -25 -28 -25 -31 0 -8 -94
-150 -102 -153 -5 -2 -8 -9 -8 -15 0 -7 -14 -30 -30 -51 -17 -22 -30 -43 -30
-47 0 -4 -18 -37 -40 -73 -22 -36 -40 -70 -40 -76 0 -5 -5 -10 -12 -10 -6 0
-9 -3 -6 -6 4 -3 -8 -31 -26 -62 -72 -129 -239 -521 -261 -612 -2 -8 -15 -48
-29 -87 -14 -40 -22 -73 -19 -73 3 0 -1 -7 -8 -17 -8 -9 -13 -18 -11 -20 1 -1
2 -4 1 -5 -2 -7 -8 -36 -14 -67 -3 -19 -8 -38 -12 -43 -5 -9 -26 -95 -37 -149
-2 -13 -10 -46 -16 -74 -6 -27 -14 -66 -17 -85 -9 -68 -12 -85 -13 -85 -2 0
-9 -36 -15 -85 -3 -25 -8 -63 -10 -85 -13 -96 -15 -114 -21 -190 -3 -44 -7
-102 -8 -130 -1 -27 -5 -55 -9 -62 -4 -6 -3 -14 2 -17 5 -3 5 -21 1 -41 -5
-24 -4 -33 3 -28 6 4 7 1 2 -7 -6 -9 -11 -235 -5 -235 0 0 3 -38 5 -85 8 -178
24 -331 37 -347 5 -7 5 -14 -2 -18 -6 -3 -8 -10 -6 -14 4 -6 35 -167 52 -276
3 -16 10 -48 16 -70 6 -22 12 -49 13 -60 2 -11 10 -47 20 -80 9 -33 19 -70 21
-81 2 -12 14 -53 26 -90 12 -38 23 -78 25 -89 2 -11 7 -29 12 -40 5 -11 16
-42 26 -70 9 -27 19 -57 22 -65 4 -8 7 -17 8 -20 3 -9 17 -44 38 -100 12 -30
21 -58 19 -62 -1 -5 2 -8 8 -8 5 0 10 -6 10 -14 0 -23 133 -302 213 -446 57
-104 169 -285 178 -288 5 -2 9 -8 9 -13 0 -15 201 -292 257 -354 10 -12 43
-50 73 -85 152 -180 365 -389 535 -526 33 -27 68 -56 78 -65 22 -20 295 -219
300 -219 2 0 37 -22 78 -48 96 -63 285 -172 298 -172 6 0 11 -4 11 -10 0 -5 4
-10 10 -10 5 0 74 -31 152 -69 140 -66 173 -81 193 -87 6 -1 44 -16 85 -34 74
-31 297 -109 329 -115 9 -2 16 -4 16 -6 0 -1 9 -3 20 -5 11 -2 52 -13 90 -24
39 -12 77 -23 85 -25 118 -28 252 -56 283 -60 21 -3 42 -7 46 -9 3 -2 29 -7
56 -10 28 -4 61 -8 75 -10 24 -4 58 -8 163 -21 27 -3 78 -9 115 -12 76 -6 651
-7 727 0 91 8 230 24 275 32 9 2 43 7 75 11 63 8 73 10 78 14 3 3 37 8 83 13
23 3 50 10 61 16 11 5 23 8 26 4 4 -3 13 -1 20 5 8 7 16 10 19 7 2 -3 49 7
104 21 54 15 106 28 114 29 8 1 22 5 30 8 8 4 84 29 169 57 298 97 593 231
866 393 28 17 59 35 70 41 40 23 140 91 143 99 2 4 10 7 18 7 8 0 14 3 14 8 1
4 25 23 55 42 30 19 55 38 55 43 0 4 7 7 15 7 8 0 15 5 15 10 0 6 6 10 14 10
8 0 16 3 18 8 2 4 37 34 78 67 41 32 80 64 87 70 6 5 33 28 59 50 55 46 179
162 234 218 67 69 91 144 76 236 -6 40 -28 91 -38 91 -5 0 -8 5 -8 11 0 15
-58 67 -90 81 -42 19 -63 22 -125 22 -81 0 -132 -26 -226 -116 -42 -40 -107
-100 -145 -132 -38 -33 -73 -65 -79 -70 -21 -24 -283 -216 -293 -216 -6 0 -15
-6 -19 -13 -4 -7 -24 -22 -43 -34 -19 -11 -75 -46 -125 -76 -82 -51 -438 -238
-450 -237 -3 1 -27 -9 -53 -20 -26 -12 -103 -42 -172 -66 -69 -25 -132 -48
-140 -51 -8 -3 -19 -7 -25 -9 -5 -1 -49 -14 -97 -28 -77 -23 -106 -30 -193
-51 -35 -9 -80 -17 -92 -18 -7 0 -13 -3 -13 -6 0 -3 -10 -6 -22 -7 -13 0 -66
-8 -118 -17 -160 -27 -187 -31 -330 -44 -87 -8 -620 -11 -620 -4 0 3 -21 6
-48 7 -57 1 -131 9 -232 24 -41 6 -84 13 -95 14 -11 2 -33 6 -50 10 -29 6 -75
14 -125 21 -41 6 -282 72 -387 107 -54 17 -102 33 -108 34 -18 4 -193 74 -253
100 -150 67 -398 196 -454 235 -14 11 -31 19 -37 19 -6 0 -11 5 -11 10 0 6 -5
10 -10 10 -6 0 -54 30 -108 66 -132 91 -222 160 -381 292 -130 107 -429 424
-541 572 -14 19 -31 39 -37 46 -7 7 -13 17 -13 23 0 6 -4 11 -10 11 -5 0 -10
6 -10 14 0 8 -4 16 -9 18 -9 3 -136 191 -165 243 -21 38 -40 69 -46 75 -14 14
-143 268 -194 383 -29 64 -87 205 -91 217 0 3 -9 30 -20 60 -11 30 -19 57 -20
60 0 3 -3 10 -6 15 -4 6 -10 24 -14 40 -5 17 -10 35 -11 40 -38 118 -65 226
-59 235 3 6 2 10 -3 10 -6 0 -15 26 -21 58 -5 31 -13 68 -16 82 -3 14 -8 39
-10 55 -3 17 -8 37 -10 45 -2 8 -7 35 -10 60 -3 25 -8 56 -10 70 -2 14 -7 46
-10 73 -3 26 -8 68 -11 95 -4 26 -7 84 -8 129 0 46 -3 83 -6 83 -10 0 1 458
14 565 2 17 7 57 10 90 4 33 11 83 16 110 5 28 12 66 14 85 3 19 8 45 11 58 3
12 7 31 9 42 3 11 8 25 12 32 5 7 3 8 -5 3 -10 -6 -11 -3 -3 11 5 11 15 48 22
84 7 36 16 70 19 75 3 6 7 19 8 29 2 11 10 39 18 62 8 24 16 53 19 66 2 13 9
34 14 48 5 14 11 30 12 35 5 20 9 32 42 120 18 50 32 93 30 98 -1 4 3 7 8 7 5
0 9 3 8 8 -4 10 75 196 84 200 4 2 8 10 8 18 0 14 119 254 131 264 6 5 75 123
94 161 5 10 13 19 17 19 5 0 8 4 8 9 0 15 143 223 183 266 10 11 27 35 38 53
12 17 25 32 30 32 5 0 9 5 9 10 0 6 8 18 18 28 9 10 35 40 57 67 54 66 326
339 399 400 33 28 68 58 78 68 10 9 22 17 27 17 5 0 11 4 13 8 3 8 143 118
198 155 120 81 192 127 200 127 6 0 10 4 10 8 0 5 15 16 33 25 17 9 64 34 102
57 121 69 321 165 465 222 66 26 317 114 330 116 3 0 12 3 20 6 21 7 184 48
243 61 59 13 74 16 97 20 14 3 36 7 50 10 31 6 87 15 120 20 14 2 48 7 75 11
28 4 66 8 85 9 19 2 35 4 35 5 0 2 97 9 207 14 54 2 102 7 107 10 5 4 12 2 15
-3 5 -8 86 -4 95 5 2 2 12 -1 22 -7 13 -7 19 -6 19 1 0 6 5 8 11 4 6 -3 59 -8
118 -10 58 -2 126 -6 151 -8 146 -14 185 -18 192 -22 3 -2 33 -7 65 -10 71 -8
81 -9 113 -17 37 -9 92 -19 118 -21 12 0 22 -5 22 -10 0 -5 2 -7 6 -4 5 5 210
-45 294 -72 19 -6 42 -13 50 -15 15 -4 99 -33 213 -75 32 -11 66 -25 75 -29
38 -20 107 -46 114 -43 5 1 8 -2 8 -8 0 -5 5 -10 11 -10 11 0 202 -94 299
-147 105 -57 336 -205 401 -257 15 -12 39 -30 55 -41 26 -18 73 -56 101 -80 6
-5 24 -20 40 -32 16 -12 42 -34 57 -48 l27 -25 -586 -586 -586 -586 -28 26
c-15 14 -32 26 -38 26 -6 0 -13 4 -15 9 -1 4 -34 29 -73 54 -38 26 -75 50 -80
54 -6 4 -30 19 -55 32 -25 13 -67 36 -95 50 -106 57 -375 160 -456 175 -13 2
-24 5 -24 6 0 1 -16 4 -35 7 -19 2 -37 8 -40 11 -3 4 -14 7 -25 8 -19 1 -78
10 -120 18 -149 29 -530 29 -689 0 -17 -3 -42 -7 -56 -9 -113 -16 -432 -110
-510 -150 -56 -30 -125 -59 -132 -57 -5 1 -8 -2 -8 -6 0 -5 -19 -17 -42 -28
-24 -10 -49 -24 -56 -31 -7 -7 -17 -13 -22 -13 -10 0 -187 -118 -235 -157
-212 -172 -374 -345 -502 -538 -82 -124 -95 -146 -148 -254 -73 -148 -148
-345 -162 -426 -2 -11 -6 -27 -10 -35 -7 -18 -6 -14 -27 -115 -27 -138 -37
-225 -42 -373 -2 -79 -6 -148 -9 -153 -4 -5 -3 -9 2 -9 4 0 8 -24 9 -53 1 -60
13 -185 19 -207 3 -8 7 -31 10 -50 33 -241 154 -563 295 -790 22 -36 43 -73
46 -82 4 -10 10 -18 14 -18 5 0 15 -13 22 -28 17 -33 123 -166 193 -241 88
-95 209 -205 325 -294 105 -82 292 -189 455 -262 54 -24 276 -102 314 -110 9
-2 45 -11 81 -20 36 -8 79 -18 95 -20 71 -11 112 -17 140 -20 17 -2 62 -7 100
-11 112 -11 361 -6 475 10 111 16 138 20 205 36 47 11 59 14 112 24 12 3 32
10 45 17 13 7 23 11 23 8 0 -5 81 20 122 37 17 8 34 14 38 14 14 0 304 138
315 150 3 3 34 23 70 44 36 22 67 43 68 48 2 4 10 8 18 8 8 0 14 5 14 11 0 5
4 8 9 5 5 -4 11 -2 13 2 1 5 26 26 53 46 51 39 161 134 219 190 42 42 75 100
82 144 3 21 7 43 9 50 2 6 1 12 -3 12 -4 0 -6 15 -6 32 2 41 -37 113 -79 152
-34 30 -87 61 -87 50 0 -4 -6 -1 -13 5 -8 6 -43 10 -84 8 -81 -4 -129 -27
-204 -99 -41 -40 -120 -107 -190 -161 -13 -10 -44 -30 -69 -45 -25 -14 -46
-30 -48 -34 -2 -4 -10 -8 -17 -8 -8 0 -20 -6 -27 -12 -19 -18 -164 -88 -183
-88 -8 0 -15 -3 -15 -8 0 -4 -17 -13 -37 -20 -49 -16 -52 -17 -88 -27 -16 -4
-34 -10 -40 -14 -5 -3 -14 -6 -20 -7 -5 -1 -41 -9 -80 -19 -67 -16 -84 -19
-157 -30 -34 -5 -136 -15 -198 -18 -19 -2 -38 2 -42 8 -5 7 -8 6 -8 -1 0 -22
-261 3 -420 41 -3 1 -21 5 -40 9 -38 8 -123 34 -155 47 -11 4 -49 20 -85 35
-36 14 -86 37 -112 50 -27 13 -49 23 -51 22 -1 -2 -9 3 -17 10 -8 6 -58 40
-110 73 -52 34 -97 64 -100 68 -3 3 -22 19 -43 35 -50 37 -226 212 -263 262
-16 21 -31 41 -34 44 -3 3 -24 32 -46 65 -126 182 -228 414 -270 610 -3 11 -9
40 -14 65 -21 95 -42 361 -31 384 2 5 5 39 6 75 3 89 21 199 51 316 3 11 7 30
10 43 2 13 18 60 35 105 17 45 32 87 33 92 6 24 90 190 97 193 5 2 9 8 9 13 0
15 87 146 151 226 146 183 387 382 571 469 29 14 60 29 68 33 8 5 26 13 40 19
103 42 127 51 145 54 11 1 22 6 25 9 5 6 201 53 265 64 128 21 364 24 497 6
88 -12 98 -13 167 -30 25 -5 49 -8 53 -5 4 3 8 0 8 -6 0 -7 7 -10 15 -7 8 4
17 2 20 -2 2 -5 21 -12 41 -16 20 -3 61 -17 90 -30 30 -13 54 -22 54 -20 0 3
16 -4 35 -15 20 -11 40 -20 46 -20 5 0 27 -11 49 -25 22 -14 40 -23 40 -20 0
8 163 -96 168 -107 2 -5 8 -8 14 -8 11 0 146 -108 205 -165 57 -55 84 -75 111
-81 12 -4 22 -10 22 -15 0 -5 6 -6 13 -3 8 3 25 0 39 -5 14 -5 28 -7 32 -4 3
3 21 7 39 8 80 5 102 25 914 838 872 872 843 839 838 955 -3 74 -31 138 -82
188 -79 77 -199 188 -258 237 -33 27 -62 53 -65 56 -3 3 -43 35 -90 71 -47 35
-87 67 -90 70 -3 3 -13 10 -22 15 -9 6 -59 39 -110 75 -94 65 -340 218 -368
228 -8 3 -27 14 -42 24 -16 11 -28 16 -28 12 0 -3 -6 -2 -13 4 -12 10 -156 85
-167 87 -3 1 -41 18 -84 38 -43 20 -82 37 -85 37 -4 0 -43 15 -86 34 -44 18
-139 52 -210 76 -72 23 -137 44 -145 47 -8 3 -19 7 -25 8 -5 2 -62 16 -125 33
-63 17 -128 34 -145 37 -16 3 -39 8 -50 10 -11 2 -31 6 -45 9 -14 3 -50 10
-80 16 -91 18 -141 26 -220 35 -30 4 -68 9 -84 11 -57 7 -172 16 -251 19 -44
2 -82 4 -85 5 -13 5 -380 4 -380 0z"/>
<path d="M8785 6854 c-124 -19 -199 -41 -265 -75 -19 -11 -40 -19 -47 -19 -7
0 -13 -4 -13 -10 0 -5 -5 -10 -11 -10 -7 0 -45 -24 -85 -52 -87 -62 -864 -837
-864 -862 0 -9 -4 -16 -8 -16 -8 0 -83 -125 -86 -144 -1 -6 -7 -20 -13 -31
-22 -41 -51 -142 -59 -205 -18 -132 -19 -169 -10 -260 10 -95 17 -130 43 -210
19 -59 103 -230 123 -250 3 -3 22 -26 43 -52 49 -61 739 -751 786 -786 20 -15
38 -29 41 -33 15 -17 188 -111 213 -115 4 -1 9 -3 12 -4 3 -1 8 -3 13 -4 4 -1
23 -7 42 -14 19 -6 49 -14 65 -17 17 -3 44 -9 60 -13 17 -4 91 -7 165 -6 143
0 260 22 359 67 25 11 48 21 51 21 3 1 23 12 45 25 22 13 42 24 45 24 6 1 3
-1 85 64 97 76 786 772 830 838 22 33 42 62 45 65 12 12 76 153 86 190 2 8 11
40 20 70 29 94 25 405 -6 486 -5 13 -8 24 -5 24 12 0 -91 221 -107 228 -5 2
-8 10 -8 18 0 8 -4 14 -10 14 -5 0 -10 5 -10 11 0 20 -47 69 -404 429 -336
337 -443 440 -469 449 -7 2 -14 7 -17 12 -12 18 -163 91 -245 117 -141 46
-286 58 -430 36z m228 -639 c29 -8 66 -24 82 -35 27 -18 717 -700 708 -700 -2
0 5 -10 16 -21 39 -42 63 -114 64 -190 1 -45 -23 -149 -34 -149 -4 0 -11 -10
-15 -22 -4 -13 -167 -183 -363 -379 -407 -408 -414 -413 -551 -412 -138 1
-143 5 -549 412 -410 410 -405 403 -405 546 0 50 5 101 11 115 6 14 10 27 9
30 -2 11 34 49 379 398 351 354 394 392 480 413 50 12 114 10 168 -6z"/>
</g>
</svg>
