<?xml version="1.0" encoding="utf-8"?>
<!-- Generator: Adobe Illustrator 26.5.0, SVG Export Plug-In . SVG Version: 6.00 Build 0)  -->
<svg version="1.1" id="Layer_1" xmlns="http://www.w3.org/2000/svg" xmlns:xlink="http://www.w3.org/1999/xlink" x="0px" y="0px"
	 viewBox="0 0 263.2 229.4" style="enable-background:new 0 0 263.2 229.4;" xml:space="preserve">
<style type="text/css">
	.st0{clip-path:url(#SVGID_00000176741574610977305810000006215405014631636914_);}
	.st1{fill:none;stroke:#A9F7F1;stroke-width:13;stroke-linecap:round;stroke-linejoin:round;}
	.st2{fill:#A9F7F1;}
</style>
<g>
	<g>
		<defs>
			<rect id="SVGID_1_" width="263.2" height="229.4"/>
		</defs>
		<clipPath id="SVGID_00000142153988316324538980000013190763956035735479_">
			<use xlink:href="#SVGID_1_"  style="overflow:visible;"/>
		</clipPath>
		<g style="clip-path:url(#SVGID_00000142153988316324538980000013190763956035735479_);">
			<path class="st1" d="M189.1,189.1c-41.1,41.1-107.8,41.1-148.9,0C15.7,164.6,5.8,130.9,10.6,99c3.2-21.5,13.1-42.2,29.7-58.8
				C81.4-0.9,148-0.9,189.1,40.2l-22.4,22.4l-16,16c-19.9-19.9-52.3-19.9-72.2,0c-8,8-12.8,18.1-14.4,28.5
				c-2.3,15.5,2.5,31.8,14.4,43.7c19.9,19.9,52.3,19.9,72.2,0"/>
			<path class="st2" d="M223.2,90.3c2.1,0,4.2,0.8,5.8,2.4l15.9,15.9c3.2,3.2,3.2,8.4,0,11.6L229,136.1c-1.6,1.6-3.7,2.4-5.8,2.4
				c-2.1,0-4.2-0.8-5.8-2.4l-15.9-15.9c-3.2-3.2-3.2-8.4,0-11.6l7.1-7.1l8.8-8.8C219,91.1,221.1,90.3,223.2,90.3 M223.2,74.4
				c-6.5,0-12.5,2.5-17.1,7.1l-8.8,8.8l-7.1,7.1c-4.6,4.6-7.1,10.6-7.1,17.1s2.5,12.5,7.1,17.1l15.9,15.9c4.6,4.6,10.6,7.1,17.1,7.1
				c6.5,0,12.5-2.5,17.1-7.1l15.9-15.9c4.6-4.6,7.1-10.6,7.1-17.1s-2.5-12.5-7.1-17.1l-15.9-15.9C235.7,76.9,229.6,74.4,223.2,74.4
				L223.2,74.4z"/>
		</g>
	</g>
</g>
</svg>
