<?xml version="1.0" encoding="utf-8"?>
<!-- Generator: Adobe Illustrator 26.5.0, SVG Export Plug-In . SVG Version: 6.00 Build 0)  -->
<svg version="1.1" id="Layer_1" xmlns="http://www.w3.org/2000/svg" xmlns:xlink="http://www.w3.org/1999/xlink" x="0px" y="0px"
	 viewBox="0 0 262.6 307.7" style="enable-background:new 0 0 262.6 307.7;" xml:space="preserve">
<style type="text/css">
	.st0{fill:#FFFFFF;}
</style>
<g>
	<path class="st0" d="M153.8,307.7c-41.1,0-79.7-16-108.8-45.1C-15,202.6-15,105,45,45C74,16,112.7,0,153.8,0s79.7,16,108.8,45.1
		L206,101.7c-14-14-32.5-21.7-52.2-21.7s-38.3,7.7-52.2,21.6c-28.8,28.8-28.8,75.6,0,104.4c13.9,13.9,32.5,21.6,52.2,21.6
		s38.3-7.7,52.2-21.6l56.6,56.6C233.5,291.7,194.8,307.7,153.8,307.7z"/>
</g>
</svg>
