<?xml version="1.0" encoding="utf-8"?>
<!-- Generator: Adobe Illustrator 26.5.0, SVG Export Plug-In . SVG Version: 6.00 Build 0)  -->
<svg version="1.1" id="Layer_1" xmlns="http://www.w3.org/2000/svg" xmlns:xlink="http://www.w3.org/1999/xlink" x="0px" y="0px"
	 viewBox="0 0 263.2 229.4" style="enable-background:new 0 0 263.2 229.4;" xml:space="preserve">
<g>
	<path d="M114.6,226.4c-29.9,0-57.9-11.6-79-32.7C10.7,168.8-1.1,133,4.2,98c3.5-23.7,14.4-45.3,31.5-62.4
		c21.1-21.1,49.2-32.7,79-32.7c29.8,0,57.9,11.6,79,32.7c2.5,2.5,2.5,6.7,0,9.2l-38.4,38.4c-2.5,2.5-6.7,2.5-9.2,0
		c-17.4-17.4-45.6-17.4-63,0C76.3,90,72,98.6,70.5,108.1c-2.1,14.1,2.5,28,12.6,38.1c8.4,8.4,19.6,13,31.5,13
		c11.9,0,23.1-4.6,31.5-13c2.5-2.5,6.7-2.5,9.2,0c2.5,2.5,2.5,6.7,0,9.2c-10.9,10.9-25.3,16.8-40.7,16.8s-29.8-6-40.7-16.8
		c-13-13-18.9-31-16.2-49.2c1.9-12.3,7.5-23.4,16.2-32.1c20.9-20.9,54-22.3,76.5-4.3l29.3-29.3c-18-15.8-40.9-24.5-65.1-24.5
		c-26.4,0-51.2,10.3-69.8,28.9C29.8,59.9,20.2,79,17,100c-4.7,30.9,5.7,62.5,27.8,84.5c18.6,18.7,43.5,28.9,69.9,28.9
		s51.2-10.3,69.9-28.9c2.5-2.5,6.7-2.5,9.2,0c2.5,2.5,2.5,6.7,0,9.2C172.6,214.8,144.5,226.4,114.6,226.4z"/>
	<path d="M223.2,90.3c2.1,0,4.2,0.8,5.8,2.4l15.9,15.9c3.2,3.2,3.2,8.4,0,11.6L229,136.1c-1.6,1.6-3.7,2.4-5.8,2.4s-4.2-0.8-5.8-2.4
		l-15.9-15.9c-3.2-3.2-3.2-8.4,0-11.6l7.1-7.1l8.8-8.8C219,91.1,221.1,90.3,223.2,90.3 M223.2,74.4c-6.5,0-12.5,2.5-17.1,7.1
		l-8.8,8.8l-7.1,7.1c-4.6,4.6-7.1,10.6-7.1,17.1s2.5,12.5,7.1,17.1l15.9,15.9c4.6,4.6,10.6,7.1,17.1,7.1s12.5-2.5,17.1-7.1
		l15.9-15.9c4.6-4.6,7.1-10.6,7.1-17.1s-2.5-12.5-7.1-17.1l-15.9-15.9C235.7,76.9,229.6,74.4,223.2,74.4L223.2,74.4z"/>
</g>
</svg>
